<svg width="24" height="25" viewBox="0 0 24 25" fill="none" xmlns="http://www.w3.org/2000/svg">
<path d="M12.0013 15.2537C13.843 15.2537 15.3346 13.762 15.3346 11.9203V7.337C15.3346 5.49533 13.843 4.00366 12.0013 4.00366C10.1596 4.00366 8.66797 5.49533 8.66797 7.337V11.9203C8.66797 13.762 10.1596 15.2537 12.0013 15.2537Z" stroke="#0B1E1B" stroke-width="1.36364" stroke-linecap="round" stroke-linejoin="round"/>
<path d="M5.625 10.3784V11.7951C5.625 15.3118 8.48333 18.1701 12 18.1701C15.5167 18.1701 18.375 15.3118 18.375 11.7951V10.3784" stroke="#0B1E1B" stroke-width="1.36364" stroke-linecap="round" stroke-linejoin="round"/>
<path d="M10.8398 7.69526C11.5898 7.42026 12.4065 7.42026 13.1565 7.69526" stroke="#0B1E1B" stroke-width="1.36364" stroke-linecap="round" stroke-linejoin="round"/>
<path d="M11.332 9.46201C11.7737 9.34535 12.232 9.34535 12.6737 9.46201" stroke="#0B1E1B" stroke-width="1.36364" stroke-linecap="round" stroke-linejoin="round"/>
<path d="M12 18.1702V20.6702" stroke="#0B1E1B" stroke-width="1.36364" stroke-linecap="round" stroke-linejoin="round"/>
</svg>
