<svg width="20" height="18" viewBox="0 0 20 18" fill="none" xmlns="http://www.w3.org/2000/svg">
<path d="M14.9019 15.0805C13.4842 15.9794 11.8028 16.5 9.99993 16.5C5.50644 16.5 1.76813 13.2668 0.984375 9.00001C1.34827 7.01886 2.34911 5.26059 3.76673 3.94532L1.16106 1.33965L2.33957 0.161133L18.8388 16.6603L17.6603 17.8388L14.9019 15.0805ZM4.94601 5.12459C3.83862 6.1333 3.03117 7.47251 2.68533 9.00001C3.44986 12.3766 6.47018 14.8333 9.99993 14.8333C11.3328 14.8333 12.593 14.483 13.6866 13.8652L11.9963 12.1749C11.4183 12.5392 10.7337 12.75 9.99993 12.75C7.92883 12.75 6.24989 11.071 6.24989 9.00001C6.24989 8.26617 6.46065 7.58159 6.82493 7.00352L4.94601 5.12459ZM10.7613 10.9398L8.06006 8.23867C7.96742 8.47451 7.91656 8.73126 7.91656 9.00001C7.91656 10.1506 8.84934 11.0833 9.99993 11.0833C10.2686 11.0833 10.5254 11.0324 10.7613 10.9398ZM17.3387 12.8269L16.1463 11.6346C16.6929 10.8555 17.0958 9.96534 17.3144 9.00001C16.5499 5.62332 13.5296 3.16664 9.99993 3.16664C9.29501 3.16664 8.61043 3.26462 7.96008 3.44832L6.64506 2.1333C7.68407 1.7245 8.81576 1.49997 9.99993 1.49997C14.4933 1.49997 18.2317 4.73311 19.0154 9.00001C18.7553 10.4163 18.1695 11.7188 17.3387 12.8269ZM9.76876 5.25698C9.84518 5.25233 9.92226 5.24997 9.99993 5.24997C12.0709 5.24997 13.7499 6.92891 13.7499 9.00001C13.7499 9.07759 13.7475 9.15467 13.7429 9.23109L9.76876 5.25698Z" fill="#1C1C1F"/>
</svg>
