<svg width="16" height="16" viewBox="0 0 16 16" fill="none" xmlns="http://www.w3.org/2000/svg">
<path d="M4.42171 6.8335C4.95928 6.8335 5.44432 6.53627 5.77607 6.11327C6.29151 5.45606 6.94113 4.90909 7.68369 4.51364C8.16511 4.25725 8.58286 3.87635 8.78543 3.36992C8.92717 3.01556 9 2.63741 9 2.25575V1.8335C9 1.55735 9.22386 1.3335 9.5 1.3335C10.3284 1.3335 11 2.00507 11 2.8335C11 3.60125 10.827 4.32859 10.5178 4.97863C10.3407 5.35086 10.5891 5.8335 11.0013 5.8335M11.0013 5.8335H13.0852C13.7696 5.8335 14.3822 6.29616 14.4547 6.97674C14.4846 7.25822 14.5 7.54406 14.5 7.8335C14.5 9.73191 13.8387 11.4759 12.734 12.8476C12.4756 13.1685 12.0761 13.3335 11.6642 13.3335H8.98683C8.66439 13.3335 8.34405 13.2815 8.03815 13.1795L5.96185 12.4874C5.65595 12.3855 5.33561 12.3335 5.01317 12.3335H3.93614M11.0013 5.8335H9.5M3.93614 12.3335C3.99135 12.4699 4.05142 12.6038 4.11615 12.735C4.24758 13.0013 4.06413 13.3335 3.76712 13.3335H3.16192C2.56945 13.3335 2.01994 12.9882 1.84704 12.4215C1.62139 11.6819 1.5 10.8969 1.5 10.0835C1.5 9.04852 1.69654 8.05945 2.05433 7.15157C2.2577 6.63552 2.77822 6.3335 3.3329 6.3335H4.03474C4.34936 6.3335 4.53154 6.7041 4.3682 6.973C3.81726 7.88002 3.5 8.94471 3.5 10.0835C3.5 10.8792 3.65488 11.6387 3.93614 12.3335Z" stroke="black" stroke-linecap="round" stroke-linejoin="round"/>
</svg>
