<svg width="14" height="14" viewBox="0 0 14 14" fill="none" xmlns="http://www.w3.org/2000/svg">
<path d="M3.42171 6.8335C3.95928 6.8335 4.44432 6.53627 4.77607 6.11327C5.29151 5.45606 5.94113 4.90909 6.68369 4.51364C7.16511 4.25725 7.58286 3.87635 7.78543 3.36992C7.92717 3.01556 8 2.63741 8 2.25575V1.8335C8 1.55735 8.22386 1.3335 8.5 1.3335C9.32843 1.3335 10 2.00507 10 2.8335C10 3.60125 9.82696 4.32859 9.51775 4.97863C9.3407 5.35086 9.58908 5.8335 10.0013 5.8335M10.0013 5.8335H12.0852C12.7696 5.8335 13.3822 6.29616 13.4547 6.97674C13.4846 7.25822 13.5 7.54406 13.5 7.8335C13.5 9.73191 12.8387 11.4759 11.734 12.8476C11.4756 13.1685 11.0761 13.3335 10.6642 13.3335H7.98683C7.66439 13.3335 7.34405 13.2815 7.03815 13.1795L4.96185 12.4874C4.65595 12.3855 4.33561 12.3335 4.01317 12.3335H2.93614M10.0013 5.8335H8.5M2.93614 12.3335C2.99135 12.4699 3.05142 12.6038 3.11615 12.735C3.24758 13.0013 3.06413 13.3335 2.76712 13.3335H2.16192C1.56945 13.3335 1.01994 12.9882 0.847038 12.4215C0.621389 11.6819 0.5 10.8969 0.5 10.0835C0.5 9.04852 0.696537 8.05945 1.05433 7.15157C1.2577 6.63552 1.77822 6.3335 2.3329 6.3335H3.03474C3.34936 6.3335 3.53154 6.7041 3.3682 6.973C2.81726 7.88002 2.5 8.94471 2.5 10.0835C2.5 10.8792 2.65488 11.6387 2.93614 12.3335Z" stroke="#9D9D9F" stroke-linecap="round" stroke-linejoin="round"/>
</svg>
