<svg width="36" height="36" viewBox="0 0 36 36" fill="none" xmlns="http://www.w3.org/2000/svg">
<path d="M18 25.5C21.4938 25.5 24.4296 23.111 25.2631 19.8775M18 25.5C14.5062 25.5 11.5703 23.111 10.7369 19.8775M18 25.5C20.0711 25.5 21.75 22.1421 21.75 18C21.75 13.8579 20.0711 10.5 18 10.5M18 25.5C15.9289 25.5 14.25 22.1421 14.25 18C14.25 13.8579 15.9289 10.5 18 10.5M18 10.5C20.8043 10.5 23.2492 12.0391 24.5359 14.3187M18 10.5C15.1957 10.5 12.7508 12.0391 11.4641 14.3187M24.5359 14.3187C22.7831 15.8337 20.4986 16.75 18 16.75C15.5014 16.75 13.2169 15.8337 11.4641 14.3187M24.5359 14.3187C25.1497 15.4062 25.5 16.6622 25.5 18C25.5 18.6483 25.4177 19.2774 25.2631 19.8775M25.2631 19.8775C23.1111 21.0706 20.6349 21.75 18 21.75C15.3651 21.75 12.8889 21.0706 10.7369 19.8775M10.7369 19.8775C10.5823 19.2774 10.5 18.6483 10.5 18C10.5 16.6622 10.8503 15.4062 11.4641 14.3187" stroke="#1C1C1F" stroke-width="1.2" stroke-linecap="round" stroke-linejoin="round"/>
</svg>
